<?xml version="1.0" encoding="utf-8"?>


<!-- The icon can be used freely in both personal and commercial projects with no attribution required, but always appreciated. 
You may NOT sub-license, resell, rent, redistribute or otherwise transfer the icon without express written permission from iconmonstr.com -->


<!DOCTYPE svg PUBLIC "-//W3C//DTD SVG 1.1//EN" "http://www.w3.org/Graphics/SVG/1.1/DTD/svg11.dtd">

<svg version="1.1" xmlns="http://www.w3.org/2000/svg" xmlns:xlink="http://www.w3.org/1999/xlink" x="0px" y="0px"

	 width="512px" height="512px" viewBox="0 0 512 512" enable-background="new 0 0 512 512" xml:space="preserve">

<path id="gear-6-icon" d="M462,278.424v-44.848l-42.09-10.535c-1.397-6.989-3.227-13.822-5.466-20.469l31.168-30.152l-22.424-38.84

	l-41.753,11.932c-4.665-5.291-9.656-10.283-14.947-14.947l11.931-41.754l-38.84-22.424l-30.154,31.169

	c-6.644-2.239-13.477-4.067-20.466-5.466L278.424,50h-44.848l-10.534,42.09c-6.99,1.398-13.823,3.227-20.468,5.467l-30.154-31.17

	l-38.84,22.424l11.933,41.755c-5.292,4.664-10.283,9.656-14.948,14.946L88.811,133.58l-22.424,38.84l31.169,30.154

	c-2.239,6.645-4.068,13.478-5.466,20.467L50,233.576v44.848l42.089,10.533c1.398,6.99,3.227,13.824,5.467,20.471l-31.169,30.154

	l22.424,38.838l41.754-11.934c4.664,5.291,9.656,10.285,14.948,14.949l-11.933,41.754l38.84,22.424l30.154-31.17

	c6.645,2.24,13.478,4.068,20.468,5.467L233.576,462h44.848l10.535-42.09c6.989-1.398,13.822-3.227,20.468-5.467l30.152,31.17

	l38.84-22.424l-11.931-41.754c5.291-4.664,10.284-9.658,14.947-14.949l41.753,11.934l22.424-38.838l-31.168-30.154

	c2.239-6.646,4.068-13.48,5.468-20.471L462,278.424z M256,336.844c-44.649,0-80.845-36.195-80.845-80.844

	c0-44.65,36.195-80.846,80.845-80.846c44.65,0,80.847,36.195,80.847,80.846C336.847,300.648,300.65,336.844,256,336.844z"/>

</svg>

